<?xml version="1.0" standalone="no"?>
<!DOCTYPE svg PUBLIC "-//W3C//DTD SVG 20010904//EN"
 "http://www.w3.org/TR/2001/REC-SVG-20010904/DTD/svg10.dtd">
<svg version="1.0" xmlns="http://www.w3.org/2000/svg"
 width="700.000000pt" height="700.000000pt" viewBox="0 0 700.000000 700.000000"
 preserveAspectRatio="xMidYMid meet">
<metadata>
Created by potrace 1.14, written by Peter Selinger 2001-2017
</metadata>
<g transform="translate(0.000000,700.000000) scale(0.100000,-0.100000)"
fill="#000000" stroke="none">
<path d="M3717 6984 c-1 -1 -40 -5 -87 -9 -213 -16 -418 -42 -482 -61 -9 -3
-25 -6 -35 -8 -292 -58 -671 -215 -968 -401 -178 -111 -285 -192 -464 -350
-116 -102 -285 -285 -404 -438 -87 -112 -317 -455 -317 -473 0 -4 -6 -15 -14
-23 -25 -28 -153 -283 -214 -426 -52 -123 -145 -384 -156 -440 -2 -11 -16 -67
-29 -125 -14 -58 -28 -125 -32 -150 -4 -25 -9 -52 -10 -60 -26 -146 -39 -352
-39 -615 1 -187 9 -388 18 -445 3 -14 7 -54 10 -89 4 -35 8 -73 11 -85 3 -11
7 -32 9 -46 56 -330 234 -803 403 -1068 18 -29 33 -54 33 -57 0 -15 188 -271
249 -340 99 -111 188 -198 306 -300 425 -367 720 -561 1055 -695 58 -23 116
-47 130 -53 14 -6 27 -11 30 -12 3 -1 28 -12 55 -25 28 -12 60 -27 73 -31 12
-5 32 -13 45 -18 63 -26 203 -53 347 -66 19 -1 73 -6 120 -11 106 -10 475 -11
595 -1 109 9 182 17 214 22 13 2 45 7 70 11 91 13 270 54 387 89 362 110 722
297 1064 554 173 130 250 200 558 508 278 278 294 300 267 353 -17 32 -72 61
-106 55 -13 -3 -95 -21 -184 -41 -176 -40 -171 -39 -235 -49 -25 -4 -53 -9
-64 -11 -10 -2 -44 -6 -75 -10 -31 -3 -64 -8 -75 -10 -46 -9 -213 -17 -336
-18 -163 0 -296 9 -420 29 -25 4 -54 9 -65 11 -11 1 -31 5 -45 8 -14 3 -38 8
-55 12 -226 46 -543 140 -746 219 -171 68 -487 222 -617 303 -201 124 -380
274 -505 424 -105 125 -332 478 -417 647 -79 157 -127 308 -145 460 -4 30 -8
61 -10 70 -2 9 -6 54 -9 101 -4 47 -9 105 -12 130 -6 65 -6 381 1 475 5 77 8
107 21 213 15 132 66 389 111 567 14 55 26 107 28 115 9 43 69 238 99 321 73
200 162 364 297 546 160 216 286 334 564 528 144 101 310 229 333 258 12 14 9
17 -20 22 -39 7 -107 12 -111 9z"/>
</g>
</svg>
